<svg width="24" height="24" viewBox="0 0 24 24" fill="none" xmlns="http://www.w3.org/2000/svg">
<path d="M17.1228 24C16.8039 24 16.4981 23.8735 16.2726 23.6482C16.0472 23.423 15.9205 23.1175 15.9205 22.799V19.6763C15.9578 19.3171 15.9194 18.9541 15.8075 18.6106C15.6957 18.2672 15.513 17.9511 15.2712 17.6826C15.1216 17.5204 15.0195 17.3202 14.9762 17.1039C14.9329 16.8876 14.9501 16.6636 15.0258 16.4564C15.1016 16.2492 15.233 16.0668 15.4057 15.9293C15.5783 15.7918 15.7856 15.7045 16.0047 15.6768C18.9383 15.3285 21.6434 14.3917 21.6434 9.31138C21.6444 8.36266 21.3641 7.4349 20.8379 6.64509C20.3524 5.91802 20.1751 5.02834 20.345 4.17096C20.4533 3.61166 20.4533 3.0368 20.345 2.4775C19.4447 2.78158 18.597 3.22319 17.8321 3.78663C17.6875 3.88922 17.522 3.95857 17.3474 3.98971C17.1728 4.02086 16.9934 4.01303 16.8222 3.96678C14.6525 3.35433 12.3553 3.35433 10.1855 3.96678C10.0143 4.01303 9.83496 4.02086 9.66035 3.98971C9.48575 3.95857 9.3202 3.88922 9.17559 3.78663C8.40604 3.21667 7.54939 2.7746 6.63874 2.4775C6.5244 3.03621 6.5244 3.61225 6.63874 4.17096C6.79634 5.03913 6.61104 5.93453 6.12175 6.66911C5.59786 7.46446 5.31789 8.39533 5.31621 9.34741C5.31621 14.0194 7.57653 15.2685 10.967 15.7009C11.1889 15.7284 11.3987 15.8171 11.5728 15.9571C11.747 16.0972 11.8786 16.2829 11.9529 16.4935C12.0228 16.6979 12.0363 16.9173 11.9918 17.1287C11.9474 17.3401 11.8467 17.5356 11.7004 17.6946C11.4666 17.9443 11.2871 18.2397 11.1733 18.5622C11.0595 18.8847 11.0138 19.2272 11.0392 19.5682V22.799C11.0392 23.1175 10.9125 23.423 10.687 23.6482C10.4615 23.8735 10.1557 24 9.83685 24C9.51799 24 9.21217 23.8735 8.9867 23.6482C8.76122 23.423 8.63455 23.1175 8.63455 22.799V22.1144C7.45313 22.2501 6.25644 22.092 5.15099 21.654C4.04554 21.2161 3.06562 20.5119 2.29844 19.6042C1.90409 19.1676 1.43095 18.809 0.903767 18.5473C0.750616 18.5079 0.606738 18.4387 0.48035 18.3437C0.353962 18.2488 0.247537 18.1298 0.167154 17.9938C0.0867701 17.8577 0.0340013 17.7072 0.0118601 17.5507C-0.010281 17.3943 -0.00136075 17.235 0.0381113 17.0821C0.0775834 16.9291 0.146834 16.7853 0.24191 16.6591C0.336986 16.5328 0.456026 16.4265 0.592231 16.3462C0.728437 16.2659 0.879141 16.2132 1.03574 16.1911C1.19234 16.169 1.35177 16.1779 1.50492 16.2173C2.42979 16.5539 3.25619 17.1152 3.90952 17.8507C5.11182 19.0517 6.31412 20.1087 8.59848 19.6763C8.55832 19.0314 8.65248 18.3853 8.87502 17.7787C6.39828 17.1541 2.86352 15.3766 2.86352 9.37143C2.86035 7.94896 3.27868 6.55738 4.06582 5.37199C4.21202 5.15317 4.26801 4.88641 4.22212 4.62735C3.97916 3.33093 4.11696 1.99197 4.61887 0.772039C4.68707 0.609377 4.79029 0.463712 4.9212 0.345395C5.05211 0.227078 5.2075 0.139011 5.37632 0.0874505C5.7851 -0.0326527 7.25191 -0.272859 10.0292 1.52869C12.2775 0.988229 14.622 0.988229 16.8703 1.52869C19.6476 -0.272859 21.1144 -0.044663 21.5112 0.0874505C21.68 0.139011 21.8354 0.227078 21.9663 0.345395C22.0972 0.463712 22.2004 0.609377 22.2686 0.772039C22.7715 1.99593 22.9093 3.33901 22.6654 4.63936C22.6408 4.75653 22.6398 4.87741 22.6625 4.99496C22.6852 5.1125 22.7312 5.22434 22.7976 5.32395C23.5871 6.51274 24.0055 7.90884 23.9999 9.3354C23.9999 15.4246 20.4892 17.1901 17.9884 17.7426C18.2087 18.3871 18.2987 19.0689 18.253 19.7483V22.799C18.2535 23.1054 18.1368 23.4005 17.9267 23.6237C17.7166 23.847 17.429 23.9816 17.1228 24Z" fill="#777777"/>
</svg>
