<svg width="26" height="26" viewBox="0 0 26 26" fill="none" xmlns="http://www.w3.org/2000/svg">
<path d="M17.8001 8.57892C19.7097 8.57892 21.541 9.37741 22.8913 10.7987C24.2415 12.2201 25.0001 14.1478 25.0001 16.1579V25H20.2001V16.1579C20.2001 15.4878 19.9472 14.8453 19.4972 14.3715C19.0471 13.8977 18.4366 13.6316 17.8001 13.6316C17.1636 13.6316 16.5531 13.8977 16.103 14.3715C15.653 14.8453 15.4001 15.4878 15.4001 16.1579V25H10.6001V16.1579C10.6001 14.1478 11.3587 12.2201 12.7089 10.7987C14.0592 9.37741 15.8905 8.57892 17.8001 8.57892V8.57892Z" stroke="#777777" stroke-width="2" stroke-linecap="round" stroke-linejoin="round"/>
<path d="M1 9.8421H5.8V25H1V9.8421Z" stroke="#777777" stroke-width="2" stroke-linecap="round" stroke-linejoin="round"/>
<path d="M3.4 6.05263C4.72548 6.05263 5.8 4.92156 5.8 3.52632C5.8 2.13107 4.72548 1 3.4 1C2.07452 1 1 2.13107 1 3.52632C1 4.92156 2.07452 6.05263 3.4 6.05263Z" stroke="#777777" stroke-width="2" stroke-linecap="round" stroke-linejoin="round"/>
</svg>
