<svg width="16" height="16" viewBox="0 0 16 16" fill="none" xmlns="http://www.w3.org/2000/svg">
<path d="M8.4095 16C6.15698 16 4.04346 15.127 2.45823 13.5418C0.872988 11.9566 1.96949e-07 9.843 1.96949e-07 7.59044C-0.000336065 6.03654 0.429924 4.51293 1.24302 3.18873C2.05612 1.86453 3.22025 0.791547 4.60621 0.0888664C4.7488 0.01618 4.90964 -0.0128981 5.06865 0.00526221C5.22766 0.0234225 5.3778 0.0880165 5.50033 0.190981C5.62286 0.293945 5.71234 0.430719 5.75762 0.584228C5.80289 0.737737 5.80195 0.90118 5.7549 1.05416C5.35941 2.33159 5.32054 3.69281 5.64249 4.99073C5.96444 6.28865 6.63497 7.47391 7.58161 8.41843C8.26095 9.10282 9.0693 9.64567 9.95986 10.0155C10.8504 10.3854 11.8055 10.575 12.7698 10.5732C13.5075 10.5738 14.241 10.4632 14.9458 10.245C15.0987 10.198 15.2622 10.197 15.4157 10.2423C15.5693 10.2875 15.706 10.377 15.809 10.4996C15.912 10.6221 15.9766 10.7723 15.9947 10.9313C16.0129 11.0903 15.9838 11.2512 15.9111 11.3938C15.2084 12.7797 14.1354 13.9439 12.8112 14.757C11.487 15.5701 9.96341 16.0004 8.4095 16ZM4.57711 1.32573C3.50237 1.97964 2.61458 2.89984 1.99961 3.99732C1.38464 5.0948 1.06331 6.33241 1.06669 7.59044C1.06669 11.6393 4.36064 14.9334 8.4095 14.9334C9.66753 14.9367 10.9052 14.6154 12.0026 14.0004C13.1001 13.3855 14.0203 12.4977 14.6742 11.4229C14.0498 11.5675 13.4108 11.6403 12.7699 11.64C11.6654 11.6421 10.5715 11.4252 9.55152 11.0017C8.5315 10.5781 7.60562 9.95653 6.82746 9.17278C5.81655 8.16379 5.07944 6.91383 4.68571 5.54089C4.29197 4.16795 4.25459 2.71712 4.57711 1.32573Z" fill="#777777"/>
</svg>
