<svg width="16" height="16" viewBox="0 0 20 20" fill="none" xmlns="http://www.w3.org/2000/svg">
<path d="M9.99998 3.15974C10.1552 3.15974 10.304 3.09809 10.4137 2.98836C10.5235 2.87862 10.5851 2.72979 10.5851 2.5746V0.585137C10.5851 0.429949 10.5235 0.281117 10.4137 0.171383C10.304 0.0616482 10.1552 0 9.99998 0C9.84479 0 9.69596 0.0616482 9.58622 0.171383C9.47649 0.281117 9.41484 0.429949 9.41484 0.585137V2.5746C9.41484 2.72979 9.47649 2.87862 9.58622 2.98836C9.69596 3.09809 9.84479 3.15974 9.99998 3.15974Z" fill="#777777"/>
<path d="M9.99998 16.8403C9.84479 16.8403 9.69596 16.9019 9.58622 17.0116C9.47649 17.1214 9.41484 17.2702 9.41484 17.4254V19.4149C9.41484 19.57 9.47649 19.7189 9.58622 19.8286C9.69596 19.9383 9.84479 20 9.99998 20C10.1552 20 10.304 19.9383 10.4137 19.8286C10.5235 19.7189 10.5851 19.57 10.5851 19.4149V17.4254C10.5851 17.2702 10.5235 17.1214 10.4137 17.0116C10.304 16.9019 10.1552 16.8403 9.99998 16.8403Z" fill="#777777"/>
<path d="M4.33586 5.16679C4.44467 5.26569 4.58672 5.32001 4.73375 5.31892C4.81076 5.31937 4.8871 5.30461 4.95839 5.27549C5.02968 5.24637 5.09453 5.20346 5.1492 5.14923C5.20405 5.09484 5.24758 5.03012 5.27728 4.95882C5.30699 4.88751 5.32228 4.81103 5.32228 4.73379C5.32228 4.65654 5.30699 4.58006 5.27728 4.50876C5.24758 4.43745 5.20405 4.37273 5.1492 4.31834L3.75658 2.93156C3.64464 2.8357 3.50065 2.78561 3.35339 2.7913C3.20612 2.79699 3.06643 2.85804 2.96222 2.96225C2.85801 3.06646 2.79696 3.20615 2.79127 3.35342C2.78558 3.50068 2.83567 3.64467 2.93153 3.75661L4.33586 5.16679Z" fill="#777777"/>
<path d="M15.6641 14.8332C15.6096 14.7787 15.5448 14.7354 15.4735 14.7059C15.4022 14.6763 15.3258 14.6611 15.2487 14.6611C15.1715 14.6611 15.0951 14.6763 15.0238 14.7059C14.9525 14.7354 14.8878 14.7787 14.8332 14.8332C14.7787 14.8878 14.7354 14.9525 14.7059 15.0238C14.6763 15.0951 14.6611 15.1715 14.6611 15.2487C14.6611 15.3258 14.6763 15.4022 14.7059 15.4735C14.7354 15.5448 14.7787 15.6096 14.8332 15.6641L16.2434 17.0684C16.2976 17.1237 16.3622 17.1677 16.4335 17.1978C16.5048 17.228 16.5814 17.2437 16.6588 17.244C16.8132 17.2418 16.9604 17.1787 17.0684 17.0684C17.1774 16.9588 17.2386 16.8105 17.2386 16.6559C17.2386 16.5013 17.1774 16.353 17.0684 16.2434L15.6641 14.8332Z" fill="#777777"/>
<path d="M3.15974 9.99999C3.15974 9.84481 3.09809 9.69597 2.98836 9.58624C2.87862 9.4765 2.72979 9.41486 2.5746 9.41486H0.585137C0.429949 9.41486 0.281117 9.4765 0.171383 9.58624C0.0616482 9.69597 0 9.84481 0 9.99999C0 10.1552 0.0616482 10.304 0.171383 10.4137C0.281117 10.5235 0.429949 10.5851 0.585137 10.5851H2.5746C2.72979 10.5851 2.87862 10.5235 2.98836 10.4137C3.09809 10.304 3.15974 10.1552 3.15974 9.99999Z" fill="#777777"/>
<path d="M19.4149 9.41486H17.4254C17.2702 9.41486 17.1214 9.4765 17.0116 9.58624C16.9019 9.69597 16.8403 9.84481 16.8403 9.99999C16.8403 10.1552 16.9019 10.304 17.0116 10.4137C17.1214 10.5235 17.2702 10.5851 17.4254 10.5851H19.4149C19.57 10.5851 19.7189 10.5235 19.8286 10.4137C19.9383 10.304 20 10.1552 20 9.99999C20 9.84481 19.9383 9.69597 19.8286 9.58624C19.7189 9.4765 19.57 9.41486 19.4149 9.41486Z" fill="#777777"/>
<path d="M4.33587 14.8332L2.93154 16.2434C2.84938 16.3249 2.79322 16.4289 2.77017 16.5423C2.74713 16.6557 2.75823 16.7734 2.80207 16.8805C2.84591 16.9876 2.92053 17.0793 3.01648 17.144C3.11243 17.2087 3.22541 17.2435 3.34114 17.244C3.41856 17.2437 3.49514 17.228 3.56645 17.1978C3.63777 17.1677 3.70239 17.1237 3.75658 17.0684L5.16677 15.6641C5.27695 15.5539 5.33885 15.4045 5.33885 15.2487C5.33885 15.0928 5.27695 14.9434 5.16677 14.8332C5.05658 14.723 4.90714 14.6611 4.75132 14.6611C4.59549 14.6611 4.44605 14.723 4.33587 14.8332Z" fill="#777777"/>
<path d="M15.2662 5.31889C15.3432 5.31933 15.4196 5.30457 15.4909 5.27545C15.5622 5.24633 15.627 5.20343 15.6817 5.1492L17.086 3.73902C17.195 3.62938 17.2562 3.48108 17.2562 3.3265C17.2562 3.17191 17.195 3.02361 17.086 2.91397C16.9764 2.80499 16.8281 2.74382 16.6735 2.74382C16.5189 2.74382 16.3706 2.80499 16.261 2.91397L14.8508 4.3183C14.7959 4.3727 14.7524 4.43742 14.7227 4.50872C14.693 4.58002 14.6777 4.65651 14.6777 4.73375C14.6777 4.811 14.693 4.88748 14.7227 4.95878C14.7524 5.03009 14.7959 5.0948 14.8508 5.1492C14.9055 5.20343 14.9703 5.24633 15.0416 5.27545C15.1129 5.30457 15.1892 5.31933 15.2662 5.31889Z" fill="#777777"/>
<path d="M10.0761 4.00235C8.90059 3.98726 7.74719 4.32204 6.76248 4.96411C5.77776 5.60619 5.0062 6.52657 4.54588 7.60825C4.08556 8.68993 3.95727 9.88406 4.17732 11.0388C4.39736 12.1936 4.95581 13.2569 5.78167 14.0935C6.60753 14.9301 7.66349 15.5022 8.81533 15.7372C9.96717 15.9721 11.1629 15.8592 12.2504 15.4129C13.3379 14.9666 14.2682 14.207 14.9229 13.2307C15.5777 12.2543 15.9273 11.1053 15.9274 9.92979C15.9352 8.36851 15.3237 6.86783 14.2268 5.75672C13.13 4.64561 11.6373 4.01472 10.0761 4.00235ZM10.0761 14.6811C9.13183 14.6962 8.20448 14.4299 7.4121 13.9162C6.61971 13.4025 5.99815 12.6646 5.62657 11.7964C5.25499 10.9282 5.1502 9.96913 5.32555 9.04121C5.5009 8.11329 5.94845 7.25856 6.61121 6.58586C7.27398 5.91315 8.12195 5.45292 9.04716 5.26378C9.97236 5.07463 10.9329 5.16513 11.8065 5.52375C12.6801 5.88236 13.4272 6.49287 13.9527 7.27752C14.4781 8.06216 14.7582 8.98545 14.7571 9.92979C14.7634 11.1797 14.2744 12.3812 13.3972 13.2716C12.52 14.162 11.3259 14.6687 10.0761 14.6811Z" fill="#777777"/>
</svg>
