<svg width="24" height="24" viewBox="0 0 24 24" fill="none" xmlns="http://www.w3.org/2000/svg">
<path d="M7.34144 23.987H7.23511C5.09294 23.9659 2.98175 23.4077 1.05441 22.353C0.699879 22.1652 0.40797 21.8544 0.221414 21.4659C0.0348566 21.0775 -0.0365508 20.6319 0.0176447 20.1944C0.0765865 19.7539 0.257413 19.3457 0.534307 19.0281C0.811201 18.7104 1.17001 18.4995 1.5595 18.4255C2.75391 18.2458 3.90296 17.7917 4.93562 17.0914C3.14277 15.5105 1.76253 13.4121 0.941186 11.0184C0.119841 8.62482 -0.112015 6.02517 0.270189 3.49501C0.322011 3.09424 0.474836 2.71871 0.710478 2.41309C0.94612 2.10747 1.25466 1.88463 1.59937 1.7711C1.93474 1.65232 2.29367 1.64724 2.63157 1.75651C2.96948 1.86577 3.27149 2.08456 3.5001 2.38572C4.27635 3.53366 5.25182 4.49122 6.36702 5.19998C7.48222 5.90873 8.71376 6.35382 9.98651 6.5081C10.0473 4.742 10.7203 3.07335 11.8607 1.86105C12.4301 1.2461 13.1023 0.76511 13.8382 0.446108C14.5741 0.127106 15.359 -0.0235301 16.147 0.00297891C16.9351 0.0294879 17.7105 0.232612 18.4283 0.600513C19.146 0.968414 19.7916 1.49374 20.3276 2.14587C20.4672 2.28508 20.6407 2.3738 20.8255 2.40053C21.0104 2.42726 21.1981 2.39076 21.3643 2.29577C21.6812 2.1272 22.0341 2.06374 22.3818 2.1128C22.7295 2.16187 23.0577 2.32143 23.328 2.57286C23.5983 2.8243 23.7996 3.15725 23.9085 3.53287C24.0174 3.90849 24.0293 4.31128 23.9429 4.69425C23.6364 6.11852 23.0555 7.44919 22.2416 8.59178C22.0622 12.8562 20.3952 16.8677 17.604 19.7516C14.8128 22.6355 11.1238 24.158 7.34144 23.987V23.987ZM7.34144 20.9889H7.44777C8.99317 21.0489 10.5338 20.7622 11.9802 20.1457C13.4266 19.5291 14.7502 18.5948 15.874 17.397C16.9979 16.1992 17.8998 14.7617 18.5274 13.1679C19.155 11.5741 19.4958 9.85558 19.53 8.11208C19.552 7.63426 19.7267 7.1816 20.0218 6.83789C20.346 6.37505 20.6225 5.87214 20.8459 5.33884C20.3671 5.33987 19.8935 5.22691 19.456 5.00734C19.0185 4.78777 18.627 4.46654 18.3072 4.06465C17.9996 3.7207 17.6343 3.44941 17.2326 3.26665C16.8309 3.0839 16.4009 2.99335 15.9678 3.00032C15.5304 2.98757 15.095 3.07237 14.6867 3.24988C14.2785 3.42738 13.9053 3.69408 13.5886 4.03467C13.1614 4.49188 12.8481 5.06761 12.6802 5.70426C12.5122 6.3409 12.4955 7.01613 12.6316 7.66237L12.9772 9.37128L11.422 9.49121C9.82847 9.63776 8.2257 9.39192 6.72472 8.7707C5.22374 8.14949 3.86042 7.16776 2.72918 5.89349C2.68066 7.86683 3.11836 9.81669 3.99362 11.5263C4.86888 13.2359 6.1474 14.6382 7.68703 15.5773L8.94975 16.3868L8.11237 17.736C7.20678 19.0754 5.96598 20.0779 4.55016 20.6142C5.4584 20.8709 6.39183 20.9968 7.32815 20.9889H7.34144Z" fill="#777777"/>
</svg>
